Simulation
nRows=23
nColumns=15
endheader
time  TH_x TH_y TH_z SC_y  SC_z  SC_x  AC_y  AC_z  AC_x  GH_y  GH_z  GH_yy  EL_x  PS_y
1.25  0.000000  0.000000  0.000000  -34.85398509323303  5.685699528362593  17.83926494150051  73.2109090766746  15.408273790161088  -1.2207833018101801  -8.746103772788976  62.97644286570537  -12.875507597860759  23.653174290139596  120.000000
1.2750000000000001  0.000000  0.000000  0.000000  -35.103639322991725  5.791176689265098  18.070188583144287  73.36630698128515  15.544648167610728  -0.9913847544698657  -8.872178578393592  63.26818059620411  -13.491769356038471  23.588047661050656  120.000000
1.3  0.000000  0.000000  0.000000  -35.35007295652013  5.889367737941254  18.293656822131144  73.50494884706598  15.674861492345538  -0.7797070069837941  -8.971024480036215  63.49952607559196  -14.061869878908285  23.54506410646883  120.000000
1.3250000000000002  0.000000  0.000000  0.000000  -35.58725795908547  5.978344414203971  18.50500359694244  73.6206427936175  15.797441240149618  -0.59212648288249  -9.038490926466983  63.67504392506127  -14.570732209880735  23.518217151286258  120.000000
1.35  0.000000  0.000000  0.000000  -35.80847050732917  6.0561444814420415  18.699279163193967  73.70900392150322  15.909803063299224  -0.43423366603143265  -9.072444904919696  63.79961289927228  -15.00647693127305  23.501542626038297  120.000000
1.375  0.000000  0.000000  0.000000  -36.006698524303225  6.121001766140206  18.871406755435427  73.76798654657648  16.008365490071366  -0.3104756346857168  -9.072796064102802  63.87815270290708  -15.361424290683242  23.489402523329815  120.000000
1.4000000000000001  0.000000  0.000000  0.000000  -36.17530428509025  6.171414476555291  19.01612811939512  73.79773349664089  16.08929986738513  -0.22403608092949912  -9.04098021333153  63.91513745595435  -15.63232140963326  23.476934577682037  120.000000
1.425  0.000000  0.000000  0.000000  -36.308780213591945  6.206029923045548  19.12840292585845  73.79994886973104  16.149275870864884  -0.1769743349887662  -8.979326431211703  63.91383374214941  -15.820048721128112  23.460534018392877  120.000000
1.4500000000000002  0.000000  0.000000  0.000000  -36.40351788871979  6.223540407031451  19.204159206432657  73.77744601708524  16.185924800431614  -0.17039908826383746  -8.890404758860976  63.875445014089514  -15.929248258857726  23.438155944056508  120.000000
1.475  0.000000  0.000000  0.000000  -36.45816807009244  6.222581946881961  19.24086739629425  73.73375128922562  16.198264701282064  -0.20462160210050823  -8.77646646542666  63.798391415125174  -15.967851865410584  23.409632371318594  120.000000
1.5  0.000000  0.000000  0.000000  -36.473618028890435  6.201719026325246  19.237788304642127  73.672796246194  16.186852083274562  -0.2791341707557905  -8.639074044598265  63.67811665274767  -15.946261383687174  23.376711076699127  120.000000
1.5250000000000001  0.000000  0.000000  0.000000  -36.45266671837739  6.159607676615458  19.195785716461966  73.59872955567097  16.153549062447464  -0.3925615383541021  -8.478924613778727  63.50760088843169  -15.87614106349843  23.342728926075733  120.000000
1.55  0.000000  0.000000  0.000000  -36.39947316773582  6.09528483820045  19.116838234552045  73.51568262163651  16.101009552279226  -0.5425487096005529  -8.295828893335953  63.2783817346818  -15.768857449150232  23.312074520673754  120.000000
1.5750000000000002  0.000000  0.000000  0.000000  -36.31896719955413  6.008439062351445  19.003442463697393  73.42766317755103  16.032108129322644  -0.7257494134225083  -8.088834448801814  62.98174820514386  -15.634035204013685  23.28948735586974  120.000000
1.6  0.000000  0.000000  0.000000  -36.21630914002375  5.899585275609437  18.858073384786017  73.3383935624823  15.949435339047634  -0.9378720403084958  -7.856412746824634  62.609883009279834  -15.478340058319814  23.279393738742986  120.000000
1.625  0.000000  0.000000  0.000000  -36.096476900163076  5.770091715377619  18.682777948262586  73.25121217431403  15.854952778816859  -1.1739017780543657  -7.596729274385377  62.15674846756822  -15.30488240905564  23.28536095685624  120.000000
1.6500000000000001  0.000000  0.000000  0.000000  -35.963954454885354  5.621922748424268  18.478951156170226  73.1690425517162  15.749849608520888  -1.4284117835402372  -7.308033809258578  61.6186316275136  -15.113531782007444  23.309744474495915  120.000000
1.675  0.000000  0.000000  0.000000  -35.82249163350262  5.457215864393075  18.247256589752517  73.09446214711542  15.63458531686209  -1.6959780274058873  -6.989160388075264  60.99438773069196  -14.901997749534768  23.35342895463202  120.000000
1.7000000000000002  0.000000  0.000000  0.000000  -35.674943484902094  5.277868445934105  17.987630657276277  73.02971857774105  15.508978302458111  -1.9715882159544125  -6.6399449530291825  60.285550549345814  -14.667131928952376  23.415616253518543  120.000000
1.725  0.000000  0.000000  0.000000  -35.52314636218876  5.085163471073411  17.69934243197737  72.97671320064288  15.372285327492019  -2.25101529252017  -6.261523467875873  59.496351487925445  -14.406123347817854  23.493683104731627  120.000000
1.75  0.000000  0.000000  0.000000  -35.36785871125594  4.879581461338311  17.38107121902967  72.93685769358883  15.223287157541257  -2.5310222223791676  -5.856385329135061  58.63357333817638  -14.117232356127834  23.583178948677226  120.000000
1.7750000000000001  0.000000  0.000000  0.000000  -35.20880795929209  4.660850828876746  17.031030885836003  72.91079110487664  15.0604240022012  -2.8093465665359467  -5.428121925651242  57.70617949484605  -13.799745840765388  23.6781223172574  120.000000
1.8  0.000000  0.000000  0.000000  -35.04480092056077  4.428259877807485  16.647203047498795  72.89798141845765  14.8819694727457  -3.0845419079552743  -4.980863111058179  56.724703945479696  -13.453293449381981  23.771517077019716  120.000000
